<svg width="562" height="560" viewBox="0 0 562 560" fill="none" xmlns="http://www.w3.org/2000/svg">
<path d="M171.997 274.766C167.912 269.786 168.639 262.43 173.619 258.345C232.114 210.373 270.978 143.39 327.885 207.274C337.695 219.235 344.438 232.897 342.916 248.29C341.395 263.688 333.82 277.847 321.856 287.659L285.771 317.253L285.774 317.251C280.79 321.338 273.44 320.611 269.353 315.628C265.268 310.647 265.995 303.297 270.978 299.21L307.06 269.618C314.24 263.73 318.785 255.233 319.695 245.995C320.608 236.759 315.727 229.248 309.841 222.072C274.033 172.601 222.938 248.374 188.419 276.388C186.027 278.35 182.951 279.281 179.873 278.977C176.794 278.672 173.96 277.157 171.998 274.765L171.997 274.766Z" fill="white"/>
<path d="M390.693 286.176C394.733 291.193 393.939 298.542 388.922 302.582C329.997 350.024 290.529 416.653 234.201 352.258C224.5 340.209 217.881 326.486 219.541 311.108C221.202 295.724 228.904 281.634 240.956 271.93L277.307 242.664L277.304 242.666C282.324 238.624 289.668 239.417 293.71 244.437C297.749 249.454 296.956 256.798 291.936 260.84L255.589 290.104C248.356 295.927 243.734 304.382 242.741 313.612C241.745 322.839 246.558 330.394 252.378 337.623C287.738 387.416 339.515 312.107 374.286 284.406C376.696 282.466 379.78 281.563 382.855 281.895C385.931 282.227 388.751 283.767 390.691 286.177L390.693 286.176Z" fill="white"/>
<path d="M281 501.67C222.211 501.67 165.83 478.315 124.26 436.744C82.69 395.174 59.334 338.791 59.334 280.004C59.334 221.217 82.689 164.834 124.26 123.264C165.83 81.694 222.213 58.338 281 58.338C339.787 58.338 396.17 81.693 437.74 123.264C479.31 164.834 502.666 221.217 502.666 280.004C502.666 338.791 479.311 395.174 437.74 436.744C396.17 478.314 339.787 501.67 281 501.67V501.67ZM281 81.67C228.398 81.67 177.95 102.565 140.76 139.76C103.565 176.955 82.67 227.401 82.67 280C82.67 332.599 103.565 383.05 140.76 420.24C177.955 457.435 228.401 478.33 281 478.33C333.599 478.33 384.05 457.435 421.24 420.24C458.435 383.045 479.33 332.599 479.33 280C479.33 227.401 458.435 176.95 421.24 139.76C384.045 102.565 333.599 81.67 281 81.67V81.67Z" fill="white"/>
<path d="M281 560C206.738 560 135.52 530.5 83.01 477.988C30.498 425.48 0.997986 354.258 0.997986 279.998C0.997986 205.738 30.498 134.518 83.01 82.008C135.518 29.496 206.74 -0.0039978 281 -0.0039978C355.26 -0.0039978 426.48 29.496 478.99 82.008C531.502 134.516 561.002 205.738 561.002 279.998C561.002 354.258 531.502 425.478 478.99 477.988C426.482 530.5 355.26 560 281 560ZM281 23.33C212.93 23.33 147.64 50.373 99.51 98.506C51.377 146.643 24.334 211.926 24.334 279.996C24.334 348.066 51.377 413.356 99.51 461.486C147.647 509.619 212.93 536.662 281 536.662C349.07 536.662 414.36 509.619 462.49 461.486C510.623 413.349 537.666 348.066 537.666 279.996C537.666 211.926 510.623 146.636 462.49 98.506C414.353 50.373 349.07 23.33 281 23.33V23.33Z" fill="white"/>
<path d="M281 501.67C222.211 501.67 165.83 478.315 124.26 436.744C82.69 395.174 59.334 338.791 59.334 280.004C59.334 221.217 82.689 164.834 124.26 123.264C165.83 81.694 222.213 58.338 281 58.338C339.787 58.338 396.17 81.693 437.74 123.264C479.31 164.834 502.666 221.217 502.666 280.004C502.666 338.791 479.311 395.174 437.74 436.744C396.17 478.314 339.787 501.67 281 501.67V501.67ZM281 81.67C228.398 81.67 177.95 102.565 140.76 139.76C103.565 176.955 82.67 227.401 82.67 280C82.67 332.599 103.565 383.05 140.76 420.24C177.955 457.435 228.401 478.33 281 478.33C333.599 478.33 384.05 457.435 421.24 420.24C458.435 383.045 479.33 332.599 479.33 280C479.33 227.401 458.435 176.95 421.24 139.76C384.045 102.565 333.599 81.67 281 81.67V81.67Z" fill="white"/>
<path d="M281 560C206.738 560 135.52 530.5 83.01 477.988C30.498 425.48 0.997986 354.258 0.997986 279.998C0.997986 205.738 30.498 134.518 83.01 82.008C135.518 29.496 206.74 -0.0039978 281 -0.0039978C355.26 -0.0039978 426.48 29.496 478.99 82.008C531.502 134.516 561.002 205.738 561.002 279.998C561.002 354.258 531.502 425.478 478.99 477.988C426.482 530.5 355.26 560 281 560ZM281 23.33C212.93 23.33 147.64 50.373 99.51 98.506C51.377 146.643 24.334 211.926 24.334 279.996C24.334 348.066 51.377 413.356 99.51 461.486C147.647 509.619 212.93 536.662 281 536.662C349.07 536.662 414.36 509.619 462.49 461.486C510.623 413.349 537.666 348.066 537.666 279.996C537.666 211.926 510.623 146.636 462.49 98.506C414.353 50.373 349.07 23.33 281 23.33V23.33Z" fill="white"/>
</svg>
